<svg width="60" height="60" viewBox="0 0 60 60" fill="none" xmlns="http://www.w3.org/2000/svg">
<g clip-path="url(#clip0_5820_322)">
<path d="M59 29.75C59 45.9 45.9 59 29.75 59C13.6 59 0.5 45.9 0.5 29.75C0.5 13.6 13.6 0.5 29.75 0.5C45.9 0.5 59 13.6 59 29.75Z" stroke="#414142" stroke-miterlimit="10"/>
<path d="M39.14 26.52H20.53V33.08H39.14V26.52Z" stroke="#414142" stroke-miterlimit="10"/>
<path d="M45.34 40.2V19.41C45.34 18.32 44.46 17.44 43.37 17.44H41.11C40.02 17.44 39.14 18.32 39.14 19.41V40.2C39.14 41.29 40.02 42.17 41.11 42.17H43.37C44.46 42.17 45.34 41.29 45.34 40.2Z" stroke="#414142" stroke-miterlimit="10"/>
<path d="M49.63 36.99V22.61C49.63 21.86 49.02 21.25 48.27 21.25H46.7C45.95 21.25 45.34 21.86 45.34 22.61V36.99C45.34 37.74 45.95 38.35 46.7 38.35H48.27C49.02 38.35 49.63 37.74 49.63 36.99Z" stroke="#414142" stroke-miterlimit="10"/>
<path d="M14.32 19.4V40.19C14.32 41.28 15.2 42.16 16.29 42.16H18.55C19.64 42.16 20.52 41.28 20.52 40.19V19.4C20.52 18.31 19.64 17.43 18.55 17.43H16.29C15.2 17.43 14.32 18.31 14.32 19.4Z" stroke="#414142" stroke-miterlimit="10"/>
<path d="M10.03 22.61V36.99C10.03 37.74 10.64 38.35 11.39 38.35H12.96C13.71 38.35 14.32 37.74 14.32 36.99V22.61C14.32 21.86 13.71 21.25 12.96 21.25H11.39C10.64 21.25 10.03 21.86 10.03 22.61Z" stroke="#414142" stroke-miterlimit="10"/>
</g>
<defs>
<clipPath id="clip0_5820_322">
<rect width="59.5" height="59.5" fill="white"/>
</clipPath>
</defs>
</svg>
