<svg width="60" height="60" viewBox="0 0 60 60" fill="none" xmlns="http://www.w3.org/2000/svg">
<g clip-path="url(#clip0_2323_326)">
<path d="M59.25 30C59.25 46.1543 46.1543 59.25 30 59.25C13.8457 59.25 0.75 46.1543 0.75 30C0.75 13.8457 13.8457 0.75 30 0.75C46.1543 0.75 59.25 13.8457 59.25 30Z" stroke="#252525" stroke-width="1.5" stroke-miterlimit="10"/>
<path d="M11.0333 37.5023C11.0333 37.5023 15.0156 39.2484 19.9067 39.0343C24.7978 38.8202 34.7037 36.2272 36.8495 37.4309C38.6671 38.4538 38.3673 40.181 37.4918 40.3522C33.9758 41.0469 33.0956 41.0992 31.3399 41.2562C31.3399 41.2562 27.134 41.6416 26.9341 41.6607C26.7724 41.6749 32.8101 45.0911 38.1152 44.3774C43.4868 43.6495 46.3273 38.9487 48.2257 39.2389C50.124 39.5339 46.3796 48.198 36.6783 49.554C26.9817 50.91 19.4357 49.2114 11 43.9492" stroke="#252525" stroke-width="1.5" stroke-miterlimit="10"/>
<path d="M39.4761 17.8665V25.3744H33.6002V31.2456H26.097V25.3744H20.2305V17.8665H26.097V12H33.6002V17.8665H39.4761Z" stroke="#252525" stroke-width="1.5" stroke-miterlimit="10"/>
</g>
<defs>
<clipPath id="clip0_2323_326">
<rect width="60" height="60" fill="white"/>
</clipPath>
</defs>
</svg>
