<?xml version="1.0" encoding="utf-8"?>
<svg xmlns="http://www.w3.org/2000/svg" xmlns:xlink="http://www.w3.org/1999/xlink" viewBox="0 0 1440 320" preserveAspectRatio="none">
  <path fill="#a2d2ff" fill-opacity="0.3" d="M0,96L48,112C96,128,192,160,288,186.7C384,213,480,235,576,218.7C672,203,768,149,864,138.7C960,128,1056,160,1152,170.7C1248,181,1344,171,1392,165.3L1440,160L1440,320L1392,320C1344,320,1248,320,1152,320C1056,320,960,320,864,320C768,320,672,320,576,320C480,320,384,320,288,320C192,320,96,320,48,320L0,320Z"></path>
  <path fill="#bde0fe" fill-opacity="0.3" d="M0,128L48,138.7C96,149,192,171,288,176C384,181,480,171,576,144C672,117,768,75,864,64C960,53,1056,75,1152,101.3C1248,128,1344,160,1392,176L1440,192L1440,320L1392,320C1344,320,1248,320,1152,320C1056,320,960,320,864,320C768,320,672,320,576,320C480,320,384,320,288,320C192,320,96,320,48,320L0,320Z"></path>
  <path fill="#ffafcc" fill-opacity="0.3" d="M0,224L48,229.3C96,235,192,245,288,234.7C384,224,480,192,576,181.3C672,171,768,181,864,192C960,203,1056,213,1152,202.7C1248,192,1344,160,1392,144L1440,128L1440,320L1392,320C1344,320,1248,320,1152,320C1056,320,960,320,864,320C768,320,672,320,576,320C480,320,384,320,288,320C192,320,96,320,48,320L0,320Z"></path>
</svg> 